# xmcd CD database file
#
# Track frame offsets:
#	183
#	15310
#	32503
#
# Disc length: 758 seconds
#
# Revision: 1
# Processed by: cddbd v1.5.2PL0 Copyright (c) Steve Scherf et al.
# Submitted via: CDex 1.70beta2
#
DISCID=1202f403
DTITLE=Wayne Hernandez - Bad News
DYEAR=1900
DGENRE=Avantgarde
TTITLE0=Bad news
TTITLE1=The good you got
TTITLE2=Bad news (Bulletin Mix)
EXTD=
EXTT0=
EXTT1=
EXTT2=
PLAYORDER=
